<svg width="104" height="24" viewBox="0 0 104 24" fill="none" xmlns="http://www.w3.org/2000/svg">
<path d="M9.7875 11.1125C9.7875 10.7125 9.72917 10.3375 9.6125 9.9875C9.50417 9.62917 9.3375 9.31667 9.1125 9.05C8.8875 8.78333 8.6 8.575 8.25 8.425C7.90833 8.26667 7.50833 8.1875 7.05 8.1875C6.15833 8.1875 5.45417 8.44167 4.9375 8.95C4.42917 9.45833 4.10417 10.1792 3.9625 11.1125H9.7875ZM3.9 12.975C3.95 13.6333 4.06667 14.2042 4.25 14.6875C4.43333 15.1625 4.675 15.5583 4.975 15.875C5.275 16.1833 5.62917 16.4167 6.0375 16.575C6.45417 16.725 6.9125 16.8 7.4125 16.8C7.9125 16.8 8.34167 16.7417 8.7 16.625C9.06667 16.5083 9.38333 16.3792 9.65 16.2375C9.925 16.0958 10.1625 15.9667 10.3625 15.85C10.5708 15.7333 10.7708 15.675 10.9625 15.675C11.2208 15.675 11.4125 15.7708 11.5375 15.9625L12.425 17.0875C12.0833 17.4875 11.7 17.825 11.275 18.1C10.85 18.3667 10.4042 18.5833 9.9375 18.75C9.47917 18.9083 9.00833 19.0208 8.525 19.0875C8.05 19.1542 7.5875 19.1875 7.1375 19.1875C6.24583 19.1875 5.41667 19.0417 4.65 18.75C3.88333 18.45 3.21667 18.0125 2.65 17.4375C2.08333 16.8542 1.6375 16.1375 1.3125 15.2875C0.9875 14.4292 0.825 13.4375 0.825 12.3125C0.825 11.4375 0.966667 10.6167 1.25 9.85C1.53333 9.075 1.9375 8.40417 2.4625 7.8375C2.99583 7.2625 3.64167 6.80833 4.4 6.475C5.16667 6.14167 6.02917 5.975 6.9875 5.975C7.79583 5.975 8.54167 6.10417 9.225 6.3625C9.90833 6.62083 10.4958 7 10.9875 7.5C11.4792 7.99167 11.8625 8.6 12.1375 9.325C12.4208 10.0417 12.5625 10.8625 12.5625 11.7875C12.5625 12.2542 12.5125 12.5708 12.4125 12.7375C12.3125 12.8958 12.1208 12.975 11.8375 12.975H3.9Z" fill="#71C55D"/>
<path d="M26.242 4.2125C26.142 4.3875 26.0337 4.51667 25.917 4.6C25.8087 4.675 25.6712 4.7125 25.5045 4.7125C25.3295 4.7125 25.1378 4.65 24.9295 4.525C24.7295 4.39167 24.4878 4.24583 24.2045 4.0875C23.9212 3.92917 23.5878 3.7875 23.2045 3.6625C22.8295 3.52917 22.3837 3.4625 21.867 3.4625C21.4003 3.4625 20.992 3.52083 20.642 3.6375C20.292 3.74583 19.9962 3.9 19.7545 4.1C19.5212 4.3 19.3462 4.54167 19.2295 4.825C19.1128 5.1 19.0545 5.40417 19.0545 5.7375C19.0545 6.1625 19.1712 6.51667 19.4045 6.8C19.6462 7.08333 19.9628 7.325 20.3545 7.525C20.7462 7.725 21.192 7.90417 21.692 8.0625C22.192 8.22083 22.7045 8.39167 23.2295 8.575C23.7545 8.75 24.267 8.95833 24.767 9.2C25.267 9.43333 25.7128 9.73333 26.1045 10.1C26.4962 10.4583 26.8087 10.9 27.042 11.425C27.2837 11.95 27.4045 12.5875 27.4045 13.3375C27.4045 14.1542 27.2628 14.9208 26.9795 15.6375C26.7045 16.3458 26.2962 16.9667 25.7545 17.5C25.2212 18.025 24.567 18.4417 23.792 18.75C23.017 19.05 22.1295 19.2 21.1295 19.2C20.5545 19.2 19.9878 19.1417 19.4295 19.025C18.8712 18.9167 18.3337 18.7583 17.817 18.55C17.3087 18.3417 16.8295 18.0917 16.3795 17.8C15.9295 17.5083 15.5295 17.1833 15.1795 16.825L16.167 15.2125C16.2503 15.0958 16.3587 15 16.492 14.925C16.6253 14.8417 16.767 14.8 16.917 14.8C17.1253 14.8 17.3503 14.8875 17.592 15.0625C17.8337 15.2292 18.1212 15.4167 18.4545 15.625C18.7878 15.8333 19.1753 16.025 19.617 16.2C20.067 16.3667 20.6045 16.45 21.2295 16.45C22.1878 16.45 22.9295 16.225 23.4545 15.775C23.9795 15.3167 24.242 14.6625 24.242 13.8125C24.242 13.3375 24.1212 12.95 23.8795 12.65C23.6462 12.35 23.3337 12.1 22.942 11.9C22.5503 11.6917 22.1045 11.5167 21.6045 11.375C21.1045 11.2333 20.5962 11.0792 20.0795 10.9125C19.5628 10.7458 19.0545 10.5458 18.5545 10.3125C18.0545 10.0792 17.6087 9.775 17.217 9.4C16.8253 9.025 16.5087 8.55833 16.267 8C16.0337 7.43333 15.917 6.7375 15.917 5.9125C15.917 5.25417 16.0462 4.6125 16.3045 3.9875C16.5712 3.3625 16.9545 2.80833 17.4545 2.325C17.9545 1.84167 18.5712 1.45417 19.3045 1.1625C20.0378 0.870833 20.8795 0.725 21.8295 0.725C22.8962 0.725 23.8795 0.891666 24.7795 1.225C25.6795 1.55833 26.4462 2.025 27.0795 2.625L26.242 4.2125ZM34.8137 19.2C33.697 19.2 32.8387 18.8875 32.2387 18.2625C31.647 17.6292 31.3512 16.7583 31.3512 15.65V8.4875H30.0387C29.872 8.4875 29.7303 8.43333 29.6137 8.325C29.497 8.21667 29.4387 8.05417 29.4387 7.8375V6.6125L31.5012 6.275L32.1512 2.775C32.1928 2.60833 32.272 2.47917 32.3887 2.3875C32.5053 2.29583 32.6553 2.25 32.8387 2.25H34.4387V6.2875H37.8637V8.4875H34.4387V15.4375C34.4387 15.8375 34.5345 16.15 34.7262 16.375C34.9262 16.6 35.197 16.7125 35.5387 16.7125C35.7303 16.7125 35.8887 16.6917 36.0137 16.65C36.147 16.6 36.2595 16.55 36.3512 16.5C36.4512 16.45 36.5387 16.4042 36.6137 16.3625C36.6887 16.3125 36.7637 16.2875 36.8387 16.2875C36.9303 16.2875 37.0053 16.3125 37.0637 16.3625C37.122 16.4042 37.1845 16.4708 37.2512 16.5625L38.1762 18.0625C37.7262 18.4375 37.2095 18.7208 36.6262 18.9125C36.0428 19.1042 35.4387 19.2 34.8137 19.2ZM47.8654 13.525C46.9738 13.5667 46.2238 13.6458 45.6154 13.7625C45.0071 13.8708 44.5196 14.0125 44.1529 14.1875C43.7863 14.3625 43.5238 14.5667 43.3654 14.8C43.2071 15.0333 43.1279 15.2875 43.1279 15.5625C43.1279 16.1042 43.2863 16.4917 43.6029 16.725C43.9279 16.9583 44.3488 17.075 44.8654 17.075C45.4988 17.075 46.0446 16.9625 46.5029 16.7375C46.9696 16.5042 47.4238 16.1542 47.8654 15.6875V13.525ZM40.7904 7.9625C42.2654 6.6125 44.0404 5.9375 46.1154 5.9375C46.8654 5.9375 47.5363 6.0625 48.1279 6.3125C48.7196 6.55417 49.2196 6.89583 49.6279 7.3375C50.0363 7.77083 50.3446 8.29167 50.5529 8.9C50.7696 9.50833 50.8779 10.175 50.8779 10.9V19H49.4779C49.1863 19 48.9613 18.9583 48.8029 18.875C48.6446 18.7833 48.5196 18.6042 48.4279 18.3375L48.1529 17.4125C47.8279 17.7042 47.5113 17.9625 47.2029 18.1875C46.8946 18.4042 46.5738 18.5875 46.2404 18.7375C45.9071 18.8875 45.5488 19 45.1654 19.075C44.7904 19.1583 44.3738 19.2 43.9154 19.2C43.3738 19.2 42.8738 19.1292 42.4154 18.9875C41.9571 18.8375 41.5613 18.6167 41.2279 18.325C40.8946 18.0333 40.6363 17.6708 40.4529 17.2375C40.2696 16.8042 40.1779 16.3 40.1779 15.725C40.1779 15.4 40.2321 15.0792 40.3404 14.7625C40.4488 14.4375 40.6238 14.1292 40.8654 13.8375C41.1154 13.5458 41.4363 13.2708 41.8279 13.0125C42.2196 12.7542 42.6988 12.5292 43.2654 12.3375C43.8404 12.1458 44.5071 11.9917 45.2654 11.875C46.0238 11.75 46.8904 11.675 47.8654 11.65V10.9C47.8654 10.0417 47.6821 9.40833 47.3154 9C46.9488 8.58333 46.4196 8.375 45.7279 8.375C45.2279 8.375 44.8113 8.43333 44.4779 8.55C44.1529 8.66667 43.8654 8.8 43.6154 8.95C43.3654 9.09167 43.1363 9.22083 42.9279 9.3375C42.7279 9.45417 42.5029 9.5125 42.2529 9.5125C42.0363 9.5125 41.8529 9.45833 41.7029 9.35C41.5529 9.23333 41.4321 9.1 41.3404 8.95L40.7904 7.9625ZM57.9482 8.4C58.3482 7.63333 58.8232 7.03333 59.3732 6.6C59.9232 6.15833 60.5732 5.9375 61.3232 5.9375C61.9149 5.9375 62.3899 6.06667 62.7482 6.325L62.5482 8.6375C62.5066 8.7875 62.4441 8.89583 62.3607 8.9625C62.2857 9.02083 62.1816 9.05 62.0482 9.05C61.9232 9.05 61.7357 9.02917 61.4857 8.9875C61.2441 8.94583 61.0066 8.925 60.7732 8.925C60.4316 8.925 60.1274 8.975 59.8607 9.075C59.5941 9.175 59.3524 9.32083 59.1357 9.5125C58.9274 9.69583 58.7399 9.92083 58.5732 10.1875C58.4149 10.4542 58.2649 10.7583 58.1232 11.1V19H55.0357V6.175H56.8482C57.1649 6.175 57.3857 6.23333 57.5107 6.35C57.6357 6.45833 57.7191 6.65833 57.7607 6.95L57.9482 8.4ZM69.8869 19.2C68.7702 19.2 67.9119 18.8875 67.3119 18.2625C66.7202 17.6292 66.4244 16.7583 66.4244 15.65V8.4875H65.1119C64.9452 8.4875 64.8036 8.43333 64.6869 8.325C64.5702 8.21667 64.5119 8.05417 64.5119 7.8375V6.6125L66.5744 6.275L67.2244 2.775C67.2661 2.60833 67.3452 2.47917 67.4619 2.3875C67.5786 2.29583 67.7286 2.25 67.9119 2.25H69.5119V6.2875H72.9369V8.4875H69.5119V15.4375C69.5119 15.8375 69.6077 16.15 69.7994 16.375C69.9994 16.6 70.2702 16.7125 70.6119 16.7125C70.8036 16.7125 70.9619 16.6917 71.0869 16.65C71.2202 16.6 71.3327 16.55 71.4244 16.5C71.5244 16.45 71.6119 16.4042 71.6869 16.3625C71.7619 16.3125 71.8369 16.2875 71.9119 16.2875C72.0036 16.2875 72.0786 16.3125 72.1369 16.3625C72.1952 16.4042 72.2577 16.4708 72.3244 16.5625L73.2494 18.0625C72.7994 18.4375 72.2827 18.7208 71.6994 18.9125C71.1161 19.1042 70.5119 19.2 69.8869 19.2ZM87.2137 6.175V19H85.3262C84.9178 19 84.6595 18.8125 84.5512 18.4375L84.3387 17.4125C83.8137 17.9458 83.2345 18.3792 82.6012 18.7125C81.9678 19.0375 81.222 19.2 80.3637 19.2C79.6637 19.2 79.0428 19.0833 78.5012 18.85C77.9678 18.6083 77.5178 18.2708 77.1512 17.8375C76.7845 17.4042 76.5053 16.8917 76.3137 16.3C76.1303 15.7 76.0387 15.0417 76.0387 14.325V6.175H79.1262V14.325C79.1262 15.1083 79.3053 15.7167 79.6637 16.15C80.0303 16.575 80.5762 16.7875 81.3012 16.7875C81.8345 16.7875 82.3345 16.6708 82.8012 16.4375C83.2678 16.1958 83.7095 15.8667 84.1262 15.45V6.175H87.2137ZM94.6125 15.675C94.9625 16.1 95.3417 16.4 95.75 16.575C96.1667 16.75 96.6167 16.8375 97.1 16.8375C97.5667 16.8375 97.9875 16.75 98.3625 16.575C98.7375 16.4 99.0542 16.1333 99.3125 15.775C99.5792 15.4167 99.7833 14.9667 99.925 14.425C100.067 13.875 100.138 13.2292 100.138 12.4875C100.138 11.7375 100.075 11.1042 99.95 10.5875C99.8333 10.0625 99.6625 9.6375 99.4375 9.3125C99.2125 8.9875 98.9375 8.75 98.6125 8.6C98.2958 8.45 97.9333 8.375 97.525 8.375C96.8833 8.375 96.3375 8.5125 95.8875 8.7875C95.4375 9.05417 95.0125 9.43333 94.6125 9.925V15.675ZM94.45 7.925C94.975 7.33333 95.5708 6.85417 96.2375 6.4875C96.9042 6.12083 97.6875 5.9375 98.5875 5.9375C99.2875 5.9375 99.925 6.08333 100.5 6.375C101.083 6.66667 101.583 7.09167 102 7.65C102.425 8.2 102.75 8.88333 102.975 9.7C103.208 10.5083 103.325 11.4375 103.325 12.4875C103.325 13.4458 103.196 14.3333 102.938 15.15C102.679 15.9667 102.308 16.675 101.825 17.275C101.35 17.875 100.771 18.3458 100.088 18.6875C99.4125 19.0208 98.6542 19.1875 97.8125 19.1875C97.0958 19.1875 96.4833 19.0792 95.975 18.8625C95.4667 18.6375 95.0125 18.3292 94.6125 17.9375V23.1875H91.525V6.175H93.4125C93.8125 6.175 94.075 6.3625 94.2 6.7375L94.45 7.925Z" fill="#36353C"/>
</svg>
